HIERARCHY
ROOT Hips
{
  OFFSET 48.9931 55.5078 -10.2176
  CHANNELS 6 Xposition Yposition Zposition Zrotation Xrotation Yrotation
  JOINT spine
  {
    OFFSET 0 5.95438 0.342407
    CHANNELS 3 Zrotation Xrotation Yrotation
    JOINT spine1
    {
      OFFSET 0 8.85602 0
      CHANNELS 3 Zrotation Xrotation Yrotation
      JOINT spine2
      {
        OFFSET 0 8.48567 0
        CHANNELS 3 Zrotation Xrotation Yrotation
        JOINT Neck
        {
          OFFSET 0 21.7863 1.0387
          CHANNELS 3 Zrotation Xrotation Yrotation
          JOINT Head
          {
            OFFSET 0 6.5822 0
            CHANNELS 3 Zrotation Xrotation Yrotation
            End Site
            {
              OFFSET 0 15.9326 -5.25436
            }
          }
        }
        JOINT RightShoulder
        {
          OFFSET -3.57307 9.16386 -0.497525
          CHANNELS 3 Zrotation Xrotation Yrotation
          JOINT RightArm
          {
            OFFSET 0 12.0192 0
            CHANNELS 3 Zrotation Xrotation Yrotation
            JOINT RightArmRoll
            {
              OFFSET 0 6.06755 0
              CHANNELS 3 Zrotation Xrotation Yrotation
              JOINT RightForeArm
              {
                OFFSET 0 17.6726 0
                CHANNELS 3 Zrotation Xrotation Yrotation
                JOINT RightForeArmRoll
                {
                  OFFSET 0 6.80872 0
                  CHANNELS 3 Zrotation Xrotation Yrotation
                  JOINT RightHand
                  {
                    OFFSET 0 13.6636 0
                    CHANNELS 3 Zrotation Xrotation Yrotation
                    End Site
                    {
                      OFFSET 0 0 0
                    }
                  }
                }
              }
            }
          }
        }
        JOINT LeftShoulder
        {
          OFFSET 3.57307 9.16386 -0.497525
          CHANNELS 3 Zrotation Xrotation Yrotation
          JOINT LeftArm
          {
            OFFSET 0 12.0192 0
            CHANNELS 3 Zrotation Xrotation Yrotation
            JOINT LeftArmRoll
            {
              OFFSET 0 6.06754 0
              CHANNELS 3 Zrotation Xrotation Yrotation
              JOINT LeftForeArm
              {
                OFFSET 0 17.6726 0
                CHANNELS 3 Zrotation Xrotation Yrotation
                JOINT LeftForeArmRoll
                {
                  OFFSET 0 6.80872 0
                  CHANNELS 3 Zrotation Xrotation Yrotation
                  JOINT LeftHand
                  {
                    OFFSET 0 13.6636 0
                    CHANNELS 3 Zrotation Xrotation Yrotation
                    End Site
                    {
                      OFFSET 0 0 0
                    }
                  }
                }
              }
            }
          }
        }
      }
    }
  }
  JOINT RightUpLeg
  {
    OFFSET -5.27774 -0.967797 -0.811858
    CHANNELS 3 Zrotation Xrotation Yrotation
    JOINT RightUpLegRoll
    {
      OFFSET 0 16.0214 0
      CHANNELS 3 Zrotation Xrotation Yrotation
      JOINT RightLeg
      {
        OFFSET 0 -19.8401 0
        CHANNELS 3 Zrotation Xrotation Yrotation
        JOINT RightLegRoll
        {
          OFFSET 0 19.905 0
          CHANNELS 3 Zrotation Xrotation Yrotation
          JOINT RightFoot
          {
            OFFSET 0 16.5675 0
            CHANNELS 3 Zrotation Xrotation Yrotation
            JOINT RightToeBase
            {
              OFFSET 0 13.8496 0
              CHANNELS 3 Zrotation Xrotation Yrotation
              End Site
              {
                OFFSET 0.00587034 6.70728 -0.773117
              }
            }
          }
        }
      }
    }
  }
  JOINT LeftUpLeg
  {
    OFFSET 5.27774 -0.967797 -0.811858
    CHANNELS 3 Zrotation Xrotation Yrotation
    JOINT LeftUpLegRoll
    {
      OFFSET 0 16.0215 0
      CHANNELS 3 Zrotation Xrotation Yrotation
      JOINT LeftLeg
      {
        OFFSET 0 19.84 0
        CHANNELS 3 Zrotation Xrotation Yrotation
        JOINT LeftLegRoll
        {
          OFFSET 0 20.089 0
          CHANNELS 3 Zrotation Xrotation Yrotation
          JOINT LeftFoot
          {
            OFFSET 0 16.3835 0
            CHANNELS 3 Zrotation Xrotation Yrotation
            JOINT LeftToeBase
            {
              OFFSET 0 13.8496 0
              CHANNELS 3 Zrotation Xrotation Yrotation
              End Site
              {
                OFFSET -0.0263083 6.70728 -0.773117
              }
            }
          }
        }
      }
    }
  }
}
MOTION
Frames: 13
Frame Time: 0.00208333
51.6339 84.8027 32.3232 0.765679 -6.47595 0.803381 -0.0805227 -1.2367 0.0277195 -0.172102 1.52937 0.0555775 -0.172844 3.17445 0.0605423 -4.76192 18.6461 -0.00719853 4.96635 7.39592 -1.76728 79.7067 -0.122086 -2.34117 97.1851 17.6796 0.928404 -7.39778e-006 -9.37148e-007 4.91498e-007 -3.63642 -0.0247385 -1.99223 -3.57969e-006 4.4659e-006 -3.01159 8.03006 -4.95139 0.697629 -68.3818 -4.83191 3.55165 -111.515 15.8374 10.4483 1.98785e-016 -6.36111e-015 -0 3.64595 -0.0298767 1.99255 7.46851e-007 9.05022e-007 3.0116 -8.03007 -4.95139 -0.697628 176.484 -3.01797 4.76427 180 7.01512e-015 178.779 177.056 6.15371 179.931 -6.21683e-008 -2.57407e-006 0.0491704 -18.2844 67.3918 19.0337 8.13649 25.2327 -3.48774 -177.904 -2.60527 -1.0637 4.54188e-006 -4.6773e-006 -1.20148 -2.39071 -9.7918 0.0611162 -1.85314e-006 -5.42784e-006 -0.153604 19.5059 68.9536 -20.3501 -8.13649 25.2327 3.48774 
51.6272 84.7967 32.2953 0.755574 -6.45845 0.806094 -0.0794081 -1.23657 0.0277437 -0.168733 1.52962 0.055488 -0.169469 3.17469 0.0603559 -4.75495 18.6916 -0.0106749 4.96684 7.42736 -1.77089 79.7066 -0.132564 -2.34528 97.194 17.7094 0.91142 -7.39778e-006 -9.37148e-007 4.91499e-007 -3.63642 -0.0247385 -1.99223 -3.57969e-006 4.4659e-006 -3.01159 8.03006 -4.95139 0.697629 -68.3598 -4.81746 3.54277 -111.549 15.8551 10.4869 -6.55989e-015 6.36111e-015 -1.98785e-015 3.64595 -0.0298767 1.99255 7.46851e-007 9.05022e-007 3.0116 -8.03007 -4.95139 -0.697628 176.5 -3.00129 4.74801 180 7.01512e-015 178.779 177.066 6.13005 179.93 -6.21683e-008 -2.57407e-006 0.0491704 -18.2778 67.3835 19.0266 8.13649 25.2327 -3.48774 -177.896 -2.55776 -1.06164 4.54188e-006 -4.6773e-006 -1.20097 -2.3848 -9.82175 0.0622849 -1.85314e-006 -5.42784e-006 -0.153572 19.5176 68.9662 -20.3625 -8.13649 25.2327 3.48774 
51.6387 84.801 32.2786 0.745092 -6.44052 0.8089 -0.0782548 -1.23656 0.0277686 -0.165225 1.52965 0.0553944 -0.165956 3.17472 0.0601614 -4.7478 18.7365 -0.0143395 4.96742 7.45821 -1.77457 79.7064 -0.143708 -2.34965 97.2029 17.7395 0.894415 -7.39778e-006 -9.37148e-007 4.91498e-007 -3.63642 -0.0247385 -1.99223 -3.57969e-006 4.4659e-006 -3.01159 8.03006 -4.95139 0.697629 -68.3371 -4.8026 3.53362 -111.585 15.8725 10.5259 -7.95139e-016 -6.36111e-015 -3.97569e-016 3.64595 -0.0298767 1.99255 7.46851e-007 9.05022e-007 3.0116 -8.03007 -4.95139 -0.697628 176.517 -2.98462 4.73118 180 7.01512e-015 178.779 177.075 6.10546 179.929 -6.21683e-008 -2.57407e-006 0.0491704 -18.2709 67.3748 19.0191 8.13649 25.2327 -3.48774 -177.887 -2.50907 -1.05942 4.54188e-006 -4.6773e-006 -1.20047 -2.37845 -9.85288 0.0635117 -1.85314e-006 -5.42784e-006 -0.153524 19.5297 68.9794 -20.3754 -8.13649 25.2327 3.48774 
51.6423 84.7993 32.2739 0.734344 -6.42228 0.811771 -0.0770745 -1.23662 0.027794 -0.16162 1.52952 0.0552978 -0.162345 3.17459 0.059961 -4.74052 18.781 -0.0181366 4.96807 7.48864 -1.7783 79.7062 -0.155319 -2.3542 97.2117 17.7699 0.877394 -7.39778e-006 -9.37148e-007 4.91499e-007 -3.63642 -0.0247385 -1.99223 -3.57969e-006 4.4659e-006 -3.01159 8.03006 -4.95139 0.697629 -68.3139 -4.78743 3.52429 -111.62 15.8895 10.5653 1.39149e-015 3.18055e-015 -7.95139e-016 3.64595 -0.0298767 1.99255 7.46851e-007 9.05022e-007 3.0116 -8.03007 -4.95139 -0.697628 176.534 -2.96796 4.71396 180 7.01511e-015 178.778 177.085 6.08021 179.928 -6.21683e-008 -2.57407e-006 0.0491704 -18.2638 67.3658 19.0114 8.13649 25.2327 -3.48774 -177.878 -2.45955 -1.05709 4.54188e-006 -4.6773e-006 -1.19997 -2.37179 -9.88484 0.0647793 -1.85314e-006 -5.42784e-006 -0.153466 19.5423 68.993 -20.3888 -8.13649 25.2327 3.48774 
51.6355 84.7995 32.2636 0.723445 -6.40387 0.814678 -0.0758787 -1.23673 0.0278197 -0.15796 1.5293 0.0551995 -0.158679 3.17438 0.0597574 -4.73317 18.8253 -0.0220102 4.96875 7.51883 -1.78205 79.706 -0.167196 -2.35886 97.2206 17.8003 0.860362 -7.39778e-006 -9.37148e-007 4.91498e-007 -3.63642 -0.0247385 -1.99223 -3.57969e-006 4.4659e-006 -3.01159 8.03006 -4.95139 0.697629 -68.2904 -4.77211 3.51485 -111.656 15.9065 10.6049 5.36719e-015 -3.18055e-015 1.19271e-015 3.64595 -0.0298767 1.99255 7.46851e-007 9.05022e-007 3.0116 -8.03007 -4.95139 -0.697628 176.552 -2.9513 4.69651 180 7.01511e-015 178.778 177.095 6.05459 179.927 -6.21683e-008 -2.57407e-006 0.0491704 -18.2566 67.3567 19.0036 8.13649 25.2327 -3.48774 -177.869 -2.40956 -1.05471 4.54188e-006 -4.6773e-006 -1.19947 -2.36495 -9.91727 0.0660703 -1.85314e-006 -5.42784e-006 -0.153401 19.5551 69.0068 -20.4024 -8.13649 25.2327 3.48774 
51.6336 84.8001 32.2458 0.712506 -6.38541 0.817594 -0.0746791 -1.23685 0.0278455 -0.154286 1.52907 0.0551008 -0.154999 3.17414 0.059553 -4.7258 18.8695 -0.0259045 4.96944 7.54897 -1.78581 79.7058 -0.179139 -2.36354 97.2294 17.8308 0.843322 -7.39778e-006 -9.37148e-007 4.91499e-007 -3.63642 -0.0247385 -1.99223 -3.57969e-006 4.4659e-006 -3.01159 8.03006 -4.95139 0.697629 -68.2668 -4.75673 3.50539 -111.692 15.9234 10.6446 3.97569e-016 -3.18055e-015 1.19271e-015 3.64595 -0.0298767 1.99255 7.46851e-007 9.05022e-007 3.0116 -8.03007 -4.95139 -0.697628 176.57 -2.93464 4.67901 180 7.01511e-015 178.778 177.105 6.0289 179.925 -6.21683e-008 -2.57407e-006 0.0491704 -18.2494 67.3476 18.9958 8.13649 25.2327 -3.48774 -177.86 -2.35946 -1.0523 4.54188e-006 -4.6773e-006 -1.19897 -2.35806 -9.94982 0.0673674 -1.85314e-006 -5.42784e-006 -0.153335 19.568 69.0207 -20.416 -8.13649 25.2327 3.48774 
51.6395 84.796 32.2274 0.70164 -6.36704 0.820492 -0.0734872 -1.23695 0.0278711 -0.150639 1.52887 0.055003 -0.151347 3.17395 0.0593502 -4.71845 18.9138 -0.0297637 4.97012 7.57922 -1.78955 79.7056 -0.19095 -2.36817 97.2382 17.8612 0.82628 -7.39778e-006 -9.37148e-007 4.91499e-007 -3.63642 -0.0247385 -1.99223 -3.57969e-006 4.4659e-006 -3.01159 8.03006 -4.95139 0.697629 -68.2434 -4.74144 3.49598 -111.728 15.9404 10.6841 1.13307e-014 -3.18055e-015 3.97569e-015 3.64595 -0.0298767 1.99255 7.46851e-007 9.05022e-007 3.0116 -8.03007 -4.95139 -0.697628 176.588 -2.91798 4.66161 180 7.01511e-015 178.778 177.115 6.00337 179.924 -6.21683e-008 -2.57407e-006 0.0491704 -18.2423 67.3386 18.9881 8.13649 25.2327 -3.48774 -177.852 -2.30959 -1.04993 4.54188e-006 -4.6773e-006 -1.19847 -2.35126 -9.98214 0.0686532 -1.85314e-006 -5.42784e-006 -0.153272 19.5808 69.0345 -20.4296 -8.13649 25.2327 3.48774 
51.6354 84.7955 32.1944 0.690961 -6.34888 0.823344 -0.0723146 -1.23699 0.0278964 -0.147062 1.52879 0.0549072 -0.147764 3.17387 0.0591515 -4.71119 18.9584 -0.0335316 4.97076 7.60977 -1.79327 79.7054 -0.202426 -2.37267 97.2472 17.8915 0.80924 -7.39778e-006 -9.37148e-007 4.91499e-007 -3.63642 -0.0247385 -1.99223 -3.57969e-006 4.4659e-006 -3.01159 8.03006 -4.95139 0.697629 -68.2203 -4.72636 3.4867 -111.764 15.9575 10.7235 -6.36111e-015 -3.18055e-015 -1.98785e-015 3.64595 -0.0298767 1.99255 7.46851e-007 9.05022e-007 3.0116 -8.03007 -4.95139 -0.697628 176.605 -2.90131 4.64451 180 7.01511e-015 178.778 177.125 5.9783 179.923 -6.21683e-008 -2.57407e-006 0.0491704 -18.2353 67.3297 18.9805 8.13649 25.2327 -3.48774 -177.843 -2.26031 -1.04764 4.54188e-006 -4.6773e-006 -1.19797 -2.34468 -10.0139 0.0699103 -1.85314e-006 -5.42784e-006 -0.153217 19.5934 69.048 -20.4429 -8.13649 25.2327 3.48774 
51.6291 84.7873 32.19 0.680581 -6.33108 0.826121 -0.071173 -1.23695 0.0279211 -0.143596 1.52888 0.0548148 -0.144292 3.17396 0.0589594 -4.70405 19.0035 -0.0371522 4.97134 7.6408 -1.79693 79.7052 -0.21337 -2.37696 97.2562 17.9215 0.792207 -7.39778e-006 -9.37148e-007 4.91499e-007 -3.63642 -0.0247385 -1.99223 -3.57969e-006 4.4659e-006 -3.01159 8.03006 -4.95139 0.697629 -68.1978 -4.71162 3.47763 -111.799 15.9748 10.7624 -1.47101e-014 -3.18055e-015 -3.57812e-015 3.64595 -0.0298767 1.99255 7.46851e-007 9.05022e-007 3.0116 -8.03007 -4.95139 -0.697628 176.622 -2.88463 4.62786 180 7.01511e-015 178.778 177.135 5.95399 179.922 -6.21683e-008 -2.57407e-006 0.0491704 -18.2285 67.3211 18.9731 8.13649 25.2327 -3.48774 -177.834 -2.21197 -1.04547 4.54188e-006 -4.6773e-006 -1.19746 -2.33845 -10.0446 0.0711213 -1.85314e-006 -5.42784e-006 -0.153174 19.6055 69.061 -20.4558 -8.13649 25.2327 3.48774 
51.6251 84.7896 32.1903 0.670613 -6.31376 0.828796 -0.0700739 -1.23678 0.027945 -0.140282 1.52921 0.0547271 -0.140973 3.17429 0.0587763 -4.6971 19.0492 -0.0405696 4.97183 7.67247 -1.80053 79.705 -0.223581 -2.38097 97.2653 17.9511 0.775185 -7.39778e-006 -9.37148e-007 4.91499e-007 -3.63642 -0.0247385 -1.99223 -3.57969e-006 4.4659e-006 -3.01159 8.03006 -4.95139 0.697629 -68.176 -4.69734 3.46886 -111.833 15.9926 10.8008 -2.06736e-014 0 -6.75868e-015 3.64595 -0.0298767 1.99255 7.46851e-007 9.05022e-007 3.0116 -8.03007 -4.95139 -0.697628 176.638 -2.86794 4.61183 180 7.01511e-015 178.778 177.144 5.9307 179.921 -6.21683e-008 -2.57407e-006 0.0491704 -18.2221 67.3129 18.9661 8.13649 25.2327 -3.48774 -177.826 -2.16493 -1.04348 4.54188e-006 -4.6773e-006 -1.19695 -2.33271 -10.0741 0.0722688 -1.85314e-006 -5.42784e-006 -0.153149 19.6171 69.0734 -20.4681 -8.13649 25.2327 3.48774 
51.6338 84.7926 32.1622 0.66117 -6.29704 0.831341 -0.0690289 -1.23646 0.027968 -0.137162 1.52985 0.0546453 -0.137849 3.17493 0.0586048 -4.69039 19.0958 -0.0437275 4.97221 7.70498 -1.80403 79.7049 -0.232859 -2.38462 97.2746 17.9803 0.75818 -7.39778e-006 -9.37148e-007 4.91498e-007 -3.63642 -0.0247385 -1.99223 -3.57969e-006 4.4659e-006 -3.01159 8.03006 -4.95139 0.697629 -68.1553 -4.68365 3.46045 -111.866 16.0108 10.8384 4.37326e-015 -3.18055e-015 1.59028e-015 3.64595 -0.0298767 1.99255 7.46851e-007 9.05022e-007 3.0116 -8.03007 -4.95139 -0.697628 176.653 -2.85124 4.59659 180 7.01511e-015 178.778 177.152 5.9087 179.92 -6.21683e-008 -2.57407e-006 0.0491704 -18.216 67.3052 18.9596 8.13649 25.2327 -3.48774 -177.818 -2.11953 -1.0417 4.54188e-006 -4.6773e-006 -1.19644 -2.32758 -10.1019 0.0733352 -1.85314e-006 -5.42784e-006 -0.153145 19.6279 69.085 -20.4797 -8.13649 25.2327 3.48774 
51.627 84.7919 32.157 0.652366 -6.28107 0.833729 -0.0680496 -1.23595 0.0279897 -0.134278 1.53087 0.0545706 -0.13496 3.17595 0.0584471 -4.68396 19.1433 -0.0465699 4.97245 7.73849 -1.80743 79.7049 -0.241004 -2.38782 97.284 18.009 0.741196 -7.39778e-006 -9.37148e-007 4.91498e-007 -3.63642 -0.0247385 -1.99223 -3.57969e-006 4.4659e-006 -3.01159 8.03006 -4.95139 0.697629 -68.1358 -4.67068 3.45249 -111.899 16.0295 10.8752 3.37934e-015 -3.18055e-015 1.59028e-015 3.64595 -0.0298767 1.99255 7.46851e-007 9.05022e-007 3.0116 -8.03007 -4.95139 -0.697628 176.668 -2.83452 4.58232 180 7.01511e-015 178.778 177.16 5.88827 179.919 -6.21683e-008 -2.57407e-006 0.0491704 -18.2105 67.2982 18.9536 8.13649 25.2327 -3.48774 -177.811 -2.07614 -1.04019 4.54188e-006 -4.6773e-006 -1.19591 -2.32319 -10.1277 0.0743033 -1.85314e-006 -5.42784e-006 -0.153167 19.6377 69.0955 -20.4903 -8.13649 25.2327 3.48774 
51.6294 84.7923 32.1398 0.644313 -6.26597 0.835931 -0.0671477 -1.23523 0.0280099 -0.131672 1.53232 0.0545044 -0.13235 3.1774 0.0583059 -4.67788 19.192 -0.0490404 4.97253 7.77319 -1.8107 79.7049 -0.247816 -2.39051 97.2936 18.037 0.724238 -7.39778e-006 -9.37148e-007 4.91499e-007 -3.63642 -0.0247385 -1.99223 -3.57969e-006 4.4659e-006 -3.01159 8.03006 -4.95139 0.697629 -68.1177 -4.65854 3.44506 -111.93 16.049 10.9111 5.1684e-015 3.18055e-015 1.59028e-015 3.64595 -0.0298767 1.99255 7.46851e-007 9.05022e-007 3.0116 -8.03007 -4.95139 -0.697628 176.681 -2.81778 4.56919 180 7.01511e-015 178.778 177.167 5.86968 179.918 -6.21683e-008 -2.57407e-006 0.0491704 -18.2055 67.2918 18.9482 8.13649 25.2327 -3.48774 -177.805 -2.03511 -1.03899 4.54188e-006 -4.6773e-006 -1.19538 -2.31969 -10.1512 0.0751555 -1.85314e-006 -5.42784e-006 -0.153221 19.6465 69.105 -20.4999 -8.13649 25.2327 3.48774 
